<svg xmlns="http://www.w3.org/2000/svg" viewBox="0 0 200 200" fill="none">
  <!-- Placeholder QR code pattern -->
  <rect width="200" height="200" fill="#ffffff"/>
  
  <!-- Border -->
  <rect x="10" y="10" width="180" height="180" fill="none" stroke="#1a1a1a" stroke-width="4"/>
  
  <!-- Corner markers -->
  <rect x="20" y="20" width="40" height="40" fill="#1a1a1a"/>
  <rect x="28" y="28" width="24" height="24" fill="#ffffff"/>
  <rect x="32" y="32" width="16" height="16" fill="#1a1a1a"/>
  
  <rect x="140" y="20" width="40" height="40" fill="#1a1a1a"/>
  <rect x="148" y="28" width="24" height="24" fill="#ffffff"/>
  <rect x="152" y="32" width="16" height="16" fill="#1a1a1a"/>
  
  <rect x="20" y="140" width="40" height="40" fill="#1a1a1a"/>
  <rect x="28" y="148" width="24" height="24" fill="#ffffff"/>
  <rect x="32" y="152" width="16" height="16" fill="#1a1a1a"/>
  
  <!-- Placeholder pattern -->
  <g fill="#1a1a1a">
    <rect x="70" y="20" width="8" height="8"/>
    <rect x="86" y="20" width="8" height="8"/>
    <rect x="102" y="20" width="8" height="8"/>
    <rect x="118" y="20" width="8" height="8"/>
    
    <rect x="20" y="70" width="8" height="8"/>
    <rect x="36" y="70" width="8" height="8"/>
    <rect x="52" y="70" width="8" height="8"/>
    
    <rect x="70" y="70" width="60" height="60" fill="none" stroke="#1a1a1a" stroke-width="4"/>
    <rect x="85" y="85" width="30" height="30" fill="#1a1a1a"/>
    
    <rect x="140" y="70" width="8" height="8"/>
    <rect x="156" y="70" width="8" height="8"/>
    <rect x="172" y="70" width="8" height="8"/>
    
    <rect x="70" y="140" width="8" height="8"/>
    <rect x="86" y="140" width="8" height="8"/>
    <rect x="102" y="156" width="8" height="8"/>
    <rect x="118" y="172" width="8" height="8"/>
    
    <rect x="140" y="140" width="40" height="40" fill="none" stroke="#1a1a1a" stroke-width="2"/>
  </g>
  
  <!-- WeChat icon in center -->
  <circle cx="100" cy="100" r="12" fill="#07c160"/>
  <text x="100" y="105" text-anchor="middle" fill="white" font-size="10" font-family="Arial">W</text>
</svg>
